<?xml version="1.0" encoding="utf-8"?>
<!-- Generator: Adobe Adobe Illustrator 29.2.0, SVG Export Plug-In . SVG Version: 6.00 Build 0)  -->
<svg version="1.1" id="Layer_1" xmlns="http://www.w3.org/2000/svg" xmlns:xlink="http://www.w3.org/1999/xlink" x="0px" y="0px"
	 viewBox="0 0 1153 482" style="enable-background:new 0 0 1153 482;" xml:space="preserve">
<style type="text/css">
	.st0{fill:#221E1F;}
	.st1{fill:none;stroke:#F39989;stroke-width:2;}
	.st2{fill:#FFFFFF;}
	.st3{fill:#E63312;}
</style>
<rect x="887.2" y="78.1" transform="matrix(0.9005 0.4349 -0.4349 0.9005 213.0247 -390.6834)" class="st0" width="146" height="384"/>
<polygon class="st0" points="857.6,356.4 775.7,473.3 939.6,473.3 "/>
<polygon class="st0" points="1137,61.5 971.1,64.4 1069.3,213 "/>
<path vector-effect="non-scaling-stroke" class="st1" d="M582.7,262.7c25.6,15.2,50.1,14.9,69.8-8.6c4.4-5.3,8-10.8,10.8-16.6
	c20.3-42.6,46.7-99.4,79.2-170.4c0.1-0.2,0-0.4-0.2-0.4h-67c-0.6,0-1,0.3-1.2,0.8l-91.3,194.8C582.5,262.5,582.6,262.6,582.7,262.7"
	/>
<path class="st2" d="M748.5,0H1011l-27,57.6c-0.1,0.2,0,0.5,0.2,0.6c0.1,0,0.1,0,0.2,0l168.6,0v0.7L953.4,482H767.2
	c-31.6-0.6-60.5-0.2-93.7-5c-47-6.9-92.6-22.9-132-49.8c-11.7-8-23.3-17.6-34.3-27.2c-27-23.4-52.4-48.4-78.8-72.4
	c-31.2-28.4-60.9-51.6-102.6-57.6c-0.4-0.1-0.7,0.1-0.9,0.5l-94.4,203.9c-0.2,0.4-0.6,0.7-1.1,0.7H0v-0.8c0,0,0.1,0,0.1,0
	c0.1,0,0.1,0,0.1,0L196.6,57.4c0.2-0.3,0.4-0.5,0.8-0.5c81.7-8.8,165.2,5.2,232.7,54.2c16.9,12.2,32.4,25.6,46.5,40.3
	c20.5,21.2,39.4,45.2,58.3,68.4c11.5,14.2,24.7,26.8,39.4,37.8c0.3,0.2,0.8,0.2,1-0.1c0,0,0.1-0.1,0.1-0.1l93.1-198.5
	c0.1-0.3,0.4-0.5,0.7-0.5h51.2c0.3,0,0.7-0.2,0.8-0.5L748.5,0z M582.7,262.7c25.6,15.2,50.1,14.9,69.8-8.6c4.4-5.3,8-10.8,10.8-16.6
	c20.3-42.6,46.7-99.4,79.2-170.4c0.1-0.2,0-0.4-0.2-0.4h-67c-0.6,0-1,0.3-1.2,0.8l-91.3,194.8C582.5,262.5,582.6,262.6,582.7,262.7
	L582.7,262.7z M939.3,473.5c0.1,0,0.2-0.1,0.3-0.2l191.6-406.1c0.1-0.2,0-0.3-0.2-0.4c0,0-0.1,0-0.1,0h-151c-0.1,0-0.2,0.1-0.3,0.2
	L789.2,473.1c-0.1,0.2,0,0.3,0.2,0.4c0,0,0.1,0,0.1,0H939.3z"/>
<path class="st3" d="M582.7,262.7c-0.1-0.1-0.2-0.2-0.1-0.4l91.3-194.8c0.2-0.5,0.7-0.8,1.2-0.8h67c0.3,0,0.3,0.1,0.2,0.4
	c-32.4,70.9-58.8,127.7-79.2,170.4c-2.7,5.8-6.3,11.3-10.8,16.6C632.8,277.6,608.3,277.9,582.7,262.7z"/>
</svg>
